<?xml version="1.0" standalone="no"?>
<!DOCTYPE svg PUBLIC "-//W3C//DTD SVG 20010904//EN"
 "http://www.w3.org/TR/2001/REC-SVG-20010904/DTD/svg10.dtd">
<svg version="1.0" xmlns="http://www.w3.org/2000/svg"
 width="2000.000000pt" height="640.000000pt" viewBox="0 0 2000.000000 640.000000"
 preserveAspectRatio="xMidYMid meet">

<g transform="translate(0.000000,640.000000) scale(0.100000,-0.100000)"
fill="#000000" stroke="none">
<path d="M1330 6387 c-8 -8 -55 -27 -105 -43 -132 -42 -268 -116 -399 -218
-49 -38 -142 -147 -200 -236 -65 -99 -136 -255 -150 -331 -3 -21 -13 -42 -21
-49 -13 -11 -15 -298 -15 -2308 0 -1895 2 -2298 13 -2311 8 -9 27 -56 42 -106
43 -132 117 -268 219 -399 38 -49 147 -142 236 -200 99 -65 255 -136 331 -150
21 -3 42 -13 49 -21 11 -13 281 -15 2161 -15 1366 0 2149 3 2149 10 0 5 19 14
43 21 167 45 297 112 462 239 141 110 274 312 340 515 15 50 34 97 42 106 11
13 13 416 13 2311 0 2010 -2 2297 -15 2308 -8 7 -18 28 -21 49 -30 161 -216
463 -350 567 -131 102 -267 176 -399 219 -49 15 -97 34 -106 42 -23 20 -4298
19 -4319 0z m453 -554 c111 -116 157 -167 157 -176 0 -4 5 -5 10 -2 6 4 9 3 8
-2 -2 -4 13 -24 33 -43 19 -19 25 -27 14 -17 -12 9 -24 14 -28 11 -4 -4 -9 1
-13 10 -3 9 -10 16 -16 16 -5 0 -7 -4 -4 -8 3 -5 -1 -9 -9 -9 -8 0 -13 5 -12
11 1 6 -3 10 -9 9 -6 -1 -10 6 -10 15 1 9 -3 18 -9 20 -5 2 -17 10 -27 18 -11
11 -18 12 -23 4 -8 -12 -25 -4 -25 13 0 7 4 6 10 -3 5 -8 10 -10 10 -4 0 18
-27 37 -35 24 -3 -6 -11 -7 -17 -4 -7 4 -8 2 -4 -5 4 -6 12 -8 18 -5 7 4 8 2
4 -4 -4 -6 -13 -9 -21 -6 -9 4 -12 -1 -11 -13 2 -10 1 -22 -3 -28 -34 -56 -67
-450 -56 -665 10 -202 18 -295 25 -295 3 0 8 -42 13 -102 2 -29 0 -50 -4 -47
-5 3 -9 0 -9 -7 0 -17 -11 -5 -15 18 -2 10 -4 19 -5 21 -2 1 -4 7 -5 12 -1 6
-4 13 -5 18 -1 4 -2 11 -1 15 1 4 -6 10 -14 13 -8 4 -15 14 -15 24 0 10 -9 63
-19 117 -11 54 -22 139 -25 188 -3 50 -8 124 -12 166 -8 88 11 382 31 484 7
39 18 112 25 164 6 52 13 98 16 103 11 18 34 5 87 -49z m-263 -1425 c0 -7 -7
-26 -15 -41 -8 -15 -10 -25 -6 -23 10 7 7 -52 -3 -62 -4 -3 -5 6 -2 21 3 15 1
25 -4 22 -4 -3 -7 -18 -6 -34 1 -17 -1 -28 -4 -26 -4 2 -14 -9 -24 -26 -11
-18 -22 -27 -29 -22 -18 11 -36 12 -42 3 -3 -5 -12 -7 -20 -3 -9 3 -22 0 -30
-7 -8 -7 -15 -9 -15 -5 0 4 -8 1 -17 -6 -22 -16 14 26 82 96 28 29 65 69 83
89 33 37 52 46 52 24z m-64 -339 c0 -8 -8 -32 -17 -54 -10 -22 -27 -76 -38
-120 -12 -44 -28 -101 -37 -127 -37 -113 -37 -368 1 -518 8 -30 16 -66 19 -80
20 -106 138 -365 254 -559 11 -18 10 -21 -3 -21 -8 0 -16 5 -16 10 -1 6 -2 14
-3 20 0 5 -11 17 -23 25 -13 9 -23 22 -23 30 0 7 -8 12 -17 10 -10 -1 -24 2
-32 8 -16 14 -43 18 -36 7 3 -5 -6 -21 -20 -36 -14 -15 -25 -22 -25 -16 0 6 7
15 16 20 15 8 15 10 0 15 -9 4 -15 2 -13 -5 1 -7 -3 -12 -10 -13 -21 0 -36
-22 -22 -30 7 -5 10 -4 5 3 -3 6 -2 13 3 16 5 3 11 -8 13 -24 3 -22 1 -27 -7
-20 -9 8 -12 4 -11 -12 1 -17 -4 -23 -19 -23 -12 0 -20 7 -19 17 1 9 -4 14
-11 12 -14 -6 -55 45 -79 97 -9 19 -27 54 -42 79 -14 25 -29 61 -34 80 -5 19
-15 55 -23 80 -67 208 -60 563 17 825 32 111 124 252 195 301 38 25 56 26 57
3z m3159 -170 c5 -15 0 -29 -18 -47 -14 -15 -29 -37 -34 -49 -19 -50 -244
-217 -413 -305 -85 -45 -187 -78 -174 -56 4 7 -26 13 -48 9 -19 -3 -6 38 13
44 11 4 40 20 63 35 23 16 82 50 132 76 49 25 115 61 147 78 32 17 71 37 85
45 56 29 202 162 202 183 0 18 39 6 45 -13z m-2808 -73 c0 -8 -5 -14 -11 -13
-6 1 -10 -3 -9 -10 1 -6 -5 -17 -14 -25 -14 -11 -16 -11 -8 2 5 8 10 21 12 29
1 11 19 29 29 31 0 0 1 -6 1 -14z m2203 -3 c-8 -3 -26 -14 -41 -24 -14 -10
-54 -21 -90 -24 -58 -7 -63 -6 -49 8 17 18 107 43 160 45 19 0 28 -2 20 -5z
m-2057 -47 c41 -32 66 -46 207 -116 53 -26 187 -101 278 -155 119 -71 237
-177 268 -240 14 -27 14 -28 -1 -11 -11 14 -15 16 -15 5 0 -12 -2 -12 -10 1
-5 8 -10 11 -10 6 0 -5 -7 -3 -15 4 -8 7 -15 10 -15 7 0 -10 -63 20 -140 67
-100 60 -246 149 -268 161 -133 77 -231 148 -260 187 -7 10 -18 18 -23 18 -26
0 -77 78 -62 94 12 11 25 6 66 -28z m661 -24 c6 -4 13 -7 17 -7 3 0 35 -15 71
-34 70 -35 164 -120 194 -176 26 -49 10 -55 -34 -13 -20 19 -71 60 -112 91
-41 32 -80 61 -86 66 -6 5 -24 16 -41 24 -16 9 -35 23 -42 31 -7 9 -17 13 -22
10 -5 -3 -9 2 -9 10 0 10 8 13 27 10 15 -3 31 -8 37 -12z m-877 -47 c0 -8 -5
-11 -10 -8 -6 4 -8 -1 -4 -11 5 -13 1 -19 -13 -23 -11 -3 -17 -9 -14 -14 3 -5
10 -6 16 -3 7 4 8 2 4 -5 -4 -6 -11 -9 -14 -7 -4 2 -7 -8 -6 -22 3 -38 3 -38
13 -24 6 10 10 9 14 -7 3 -12 1 -19 -4 -15 -5 3 -9 0 -9 -6 0 -8 -10 -10 -27
-6 -18 4 -23 3 -15 -2 10 -7 4 -15 -23 -31 -20 -11 -40 -21 -46 -21 -17 0 -9
26 16 48 14 12 25 26 25 31 0 18 54 91 66 91 8 0 11 6 7 16 -4 12 8 31 23 34
0 0 1 -7 1 -15z m2828 -281 c28 -20 59 -40 70 -45 11 -6 37 -20 57 -32 20 -12
93 -55 161 -95 69 -40 130 -79 136 -86 9 -10 -5 -26 -66 -74 -43 -33 -89 -71
-103 -84 -13 -12 -60 -54 -103 -91 -44 -37 -85 -73 -92 -80 -67 -64 -211 -194
-241 -218 -35 -27 -39 -29 -45 -12 -4 10 -1 24 5 32 9 12 8 13 -4 6 -8 -5 -21
-10 -28 -11 -14 -3 -119 -89 -139 -114 -19 -25 -24 -6 -5 20 9 14 96 103 193
200 97 96 181 185 188 197 14 27 -7 76 -39 93 -12 6 -18 16 -14 23 4 7 4 9 -1
5 -4 -4 -14 0 -22 10 -10 11 -12 12 -8 2 4 -10 2 -9 -8 2 -8 10 -17 15 -20 11
-4 -3 -9 2 -13 11 -3 9 -12 16 -20 16 -21 0 -17 33 11 88 14 27 34 92 46 143
20 88 33 119 48 119 3 0 29 -16 56 -36z m-1926 -487 c8 -10 7 -14 -2 -14 -8 0
-14 6 -14 14 0 7 1 13 2 13 2 0 8 -6 14 -13z m-54 -6 c-9 -8 -36 -10 -30 -2 2
4 11 8 20 8 8 0 13 -3 10 -6z m115 -36 c18 -22 -7 -28 -30 -8 -19 18 -19 19 0
20 10 1 24 -4 30 -12z m-662 -164 c11 -7 11 -9 -1 -14 -9 -3 -21 1 -27 9 -10
11 -10 14 1 14 8 0 20 -4 27 -9z m-522 -43 c4 -7 3 -8 -4 -4 -7 4 -12 2 -12
-5 0 -7 -3 -10 -6 -6 -6 5 3 27 11 27 2 0 7 -5 11 -12z m88 -670 c90 -137 285
-333 391 -392 17 -9 44 -25 60 -36 17 -11 44 -27 60 -35 17 -8 37 -19 45 -24
54 -34 256 -101 301 -101 14 0 34 -7 45 -15 18 -13 16 -14 -26 -15 -25 -1 -54
-4 -65 -6 -11 -2 -28 -5 -37 -6 -9 -1 -14 -6 -12 -10 3 -5 10 -6 15 -3 5 4 9
2 9 -2 0 -5 7 -18 16 -29 15 -18 15 -18 5 3 -17 33 -12 42 5 10 8 -15 12 -32
9 -37 -3 -6 -1 -10 5 -10 7 0 19 -8 28 -18 10 -10 13 -11 7 -2 -9 13 -8 13 8
1 10 -8 16 -20 13 -27 -3 -7 0 -16 6 -20 7 -5 8 -2 4 7 -4 8 2 3 14 -11 12
-14 19 -18 15 -10 -4 8 1 6 9 -4 9 -11 16 -16 16 -11 0 5 7 0 16 -11 8 -10 12
-12 8 -4 -6 12 -4 13 7 3 7 -7 19 -13 26 -13 7 0 31 -11 53 -25 22 -14 40 -23
40 -20 0 3 8 -2 18 -10 9 -8 22 -16 27 -16 6 -1 21 -6 35 -11 14 -5 34 -12 45
-14 11 -2 31 -7 45 -9 99 -21 206 -26 269 -12 46 10 154 47 166 57 6 4 25 10
43 13 43 9 42 -10 -2 -28 -19 -8 -37 -19 -40 -24 -3 -4 -20 -11 -38 -15 -17
-3 -39 -12 -47 -20 -9 -7 -29 -18 -46 -24 -16 -6 -55 -20 -85 -32 -125 -50
-344 -106 -468 -120 -170 -19 -187 -10 -91 47 30 18 65 43 79 56 14 13 40 31
58 41 17 9 32 23 32 30 0 7 7 19 15 26 41 34 2 48 -47 17 -65 -43 -270 -38
-403 9 -195 69 -404 197 -553 338 -78 75 -272 303 -272 320 0 3 -17 31 -38 63
-71 110 -104 171 -100 184 2 6 26 -7 53 -29 52 -41 114 -85 178 -128 67 -44
84 -15 46 79 -12 29 -30 73 -40 99 -22 54 -26 126 -6 95 7 -11 39 -60 71 -109z
m1350 -468 c48 -6 102 -13 120 -15 56 -9 129 -9 241 0 178 13 206 13 195 -1
-13 -15 -175 -114 -187 -114 -6 0 -18 -9 -28 -20 -10 -11 -24 -20 -30 -20 -7
0 -24 -9 -38 -20 -14 -11 -36 -21 -49 -22 -43 -3 -327 178 -328 210 0 14 -6
14 104 2z m-337 -166 c-3 -3 -12 -4 -19 -1 -8 3 -5 6 6 6 11 1 17 -2 13 -5z
m813 -218 c0 -2 -7 -7 -16 -10 -8 -3 -12 -2 -9 4 6 10 25 14 25 6z m458 -41
c-21 -19 -34 -35 -30 -35 4 0 -8 -8 -26 -17 -18 -8 -30 -18 -28 -21 3 -2 -12
-18 -34 -33 -59 -43 -80 -62 -80 -74 0 -7 -25 -33 -54 -60 -30 -27 -52 -53
-49 -58 3 -6 1 -7 -5 -3 -13 8 -42 -20 -42 -40 0 -8 -5 -12 -10 -9 -6 4 -16
-8 -24 -26 -8 -18 -15 -26 -18 -18 -3 10 -6 9 -11 -4 -4 -10 -2 -16 6 -14 7 1
11 -3 10 -9 -1 -6 8 -11 20 -10 15 1 21 -4 19 -14 -3 -11 0 -11 15 3 15 13 22
14 33 4 10 -9 11 -9 6 1 -5 8 0 11 16 9 33 -6 28 -30 -7 -34 -16 -3 -32 -7
-35 -11 -5 -7 -23 -16 -100 -50 -25 -11 -80 -36 -123 -56 -43 -20 -82 -36 -87
-36 -16 0 -11 16 11 36 12 10 44 48 72 84 78 99 139 165 149 162 5 -1 7 1 4 6
-3 5 7 20 22 34 15 13 43 43 62 66 19 23 70 68 114 99 43 32 108 81 145 110
75 59 116 71 59 18z m-308 -319 c0 -2 -8 -10 -17 -17 -16 -13 -17 -12 -4 4 13
16 21 21 21 13z m10 -20 c0 -2 -8 -10 -17 -17 -16 -13 -17 -12 -4 4 13 16 21
21 21 13z m-50 -26 c1 8 9 0 18 -18 10 -18 21 -30 25 -26 4 4 2 13 -3 19 -7 9
-5 17 7 26 16 12 17 12 6 -2 -16 -20 -5 -32 16 -17 13 10 14 10 4 -1 -6 -7 -9
-21 -6 -30 4 -12 3 -13 -5 -2 -7 9 -12 10 -16 2 -4 -6 -11 -9 -16 -6 -5 3 -12
1 -15 -5 -5 -8 -11 -7 -21 1 -8 6 -14 8 -14 5 0 -4 -4 -5 -9 -1 -6 3 -6 17 1
36 8 23 13 27 19 17 7 -10 9 -10 9 2z m119 -27 c-3 -20 2 -24 16 -13 8 7 15
10 15 6 0 -3 0 -9 0 -13 0 -5 -10 -8 -22 -8 -14 -1 -22 -6 -20 -15 3 -11 0
-11 -12 0 -9 7 -16 20 -15 29 0 12 2 11 9 -4 5 -11 9 -17 11 -12 1 4 3 12 4
17 1 6 3 12 4 15 2 8 11 6 10 -2z"/>
<path d="M1718 4651 c5 -14 4 -14 -14 -1 -18 14 -18 13 1 -9 11 -13 19 -25 18
-27 -2 -2 0 -3 4 -1 13 4 9 54 -3 54 -7 0 -9 -7 -6 -16z"/>
<path d="M1457 4304 c-3 -3 -3 -13 0 -22 4 -10 2 -13 -5 -8 -6 3 -15 -2 -21
-11 -5 -10 -13 -17 -18 -15 -4 2 -9 -2 -11 -10 -3 -11 -2 -11 6 0 7 11 11 10
16 -4 6 -16 8 -15 23 6 9 12 17 33 19 46 2 25 1 28 -9 18z m-16 -57 c-10 -9
-11 -8 -5 6 3 10 9 15 12 12 3 -3 0 -11 -7 -18z"/>
<path d="M1386 2592 c-3 -5 1 -9 9 -9 8 0 12 4 9 9 -3 4 -7 8 -9 8 -2 0 -6 -4
-9 -8z"/>
<path d="M3661 941 c-8 -6 -9 -11 -3 -15 6 -3 14 -1 17 5 9 14 2 20 -14 10z"/>
<path d="M3625 910 c-3 -6 1 -7 9 -4 18 7 21 14 7 14 -6 0 -13 -4 -16 -10z"/>
<path d="M3517 731 c-3 -13 -3 -20 0 -17 4 3 12 1 19 -5 17 -14 28 6 15 28
-10 17 -10 16 -11 -2 -1 -20 -2 -20 -9 -1 -7 19 -8 19 -14 -3z"/>
</g>
</svg>
